<svg width="64" height="64" viewBox="0 0 64 64" fill="none" xmlns="http://www.w3.org/2000/svg">
<circle cx="32" cy="32" r="30" stroke="white" stroke-width="4"/>
<path d="M20 51V49L23 47C21.0333 47 19.375 46.325 18.025 44.975C16.675 43.625 16 41.9667 16 40V21C16 18.2333 17.2833 16.2083 19.85 14.925C22.4167 13.6417 26.4667 13 32 13C37.7333 13 41.8333 13.6167 44.3 14.85C46.7667 16.0833 48 18.1333 48 21V40C48 41.9667 47.325 43.625 45.975 44.975C44.625 46.325 42.9667 47 41 47L44 49V51H20ZM19 29.75H30.7V22H19V29.75ZM41 32.75H19H45H41ZM33.7 29.75H45V22H33.7V29.75ZM24.7529 41.25C25.5176 41.25 26.1667 40.9824 26.7 40.4471C27.2333 39.9118 27.5 39.2618 27.5 38.4971C27.5 37.7324 27.2324 37.0833 26.6971 36.55C26.1618 36.0167 25.5118 35.75 24.7471 35.75C23.9824 35.75 23.3333 36.0176 22.8 36.5529C22.2667 37.0882 22 37.7382 22 38.5029C22 39.2676 22.2676 39.9167 22.8029 40.45C23.3382 40.9833 23.9882 41.25 24.7529 41.25ZM39.253 41.25C40.0177 41.25 40.6667 40.9824 41.2 40.4471C41.7333 39.9118 42 39.2618 42 38.4971C42 37.7324 41.7323 37.0833 41.197 36.55C40.6617 36.0167 40.0117 35.75 39.247 35.75C38.4823 35.75 37.8333 36.0176 37.3 36.5529C36.7667 37.0882 36.5 37.7382 36.5 38.5029C36.5 39.2676 36.7677 39.9167 37.303 40.45C37.8383 40.9833 38.4883 41.25 39.253 41.25ZM23 44.25H41C42.1333 44.25 43.0833 43.8333 43.85 43C44.6167 42.1667 45 41.1667 45 40V32.75H19V40C19 41.1667 19.3833 42.1667 20.15 43C20.9167 43.8333 21.8667 44.25 23 44.25ZM32 16C28 16 25.1167 16.2583 23.35 16.775C21.5833 17.2917 20.3167 18.0333 19.55 19H44.6C44 18.1 42.725 17.375 40.775 16.825C38.825 16.275 35.9 16 32 16ZM32 19H44.6H19.55H32Z" fill="white"/>
</svg>
