<?xml version="1.0" encoding="UTF-8"?>
<svg viewBox="0 0 120 120" xmlns="http://www.w3.org/2000/svg">
<path d="m60.866 3.5-0.866-1.5-11.258 19.5-0.8661 1.5h24.249l-0.8661-1.5-10.392-18z" fill="FILL" stroke="BORDERS" stroke-width="2"/>
<circle cx="60" cy="60" r="22" fill="FILL" stroke="BORDERS" stroke-width="2.5"/>
<g id="candyCane" transform="ROTATE_DEG" transform-origin="center">
  <path d="M60.1555 40.2533C58.4824 40.8652 56.9489 41.8387 55.6528 43.1349C53.574 45.2136 53.5778 48.5998 55.6608 50.6829C56.6714 51.6934 58.0141 52.25 59.4417 52.25C59.689 52.25 59.9333 52.2322 60.1742 52.1992L60.1555 40.2533Z" fill="#DEDEE0"/>
  <path d="M66.2484 52.6895L76.8928 52.7059C77.0579 49.8361 76.2367 46.9178 74.43 44.5073L66.2484 52.6895Z" fill="#DEDEE0"/>
  <path d="M65.7679 68.2851L68.2851 65.7679L60.7294 58.2122L58.212 60.7294L65.7679 68.2851Z" fill="#DEDEE0"/>
  <path d="M63.7309 50.1725L71.914 41.989C69.7662 40.374 67.1673 39.5 64.4352 39.5C64.1937 39.5 63.9533 39.5076 63.7143 39.5213L63.7309 50.1725Z" fill="#DEDEE0"/>
  <path d="M63.7976 56.2459L70.8024 63.2506L73.2851 60.7678C74.6016 59.4513 75.559 57.9096 76.1591 56.2651L63.7976 56.2459Z" fill="#DEDEE0"/>
  <path d="M60.7331 73.3198L63.2505 70.8024L55.6947 63.2467L53.1776 65.764L60.7331 73.3198Z" fill="#DEDEE0"/>
  <path d="M52.3452 79.5V79.5C53.7685 79.5 55.1069 78.9462 56.1125 77.9405L58.216 75.837L50.6604 68.2813L48.5568 70.3849C46.4779 72.464 46.4816 75.8499 48.5646 77.9329C49.5748 78.9434 50.9176 79.4999 52.3452 79.5Z" fill="#DEDEE0"/>
  <path d="M68.2851 65.7679L70.8024 63.2506L63.7976 56.2459L76.1591 56.2651C76.3715 55.6831 76.539 55.0878 76.6618 54.4854C76.7815 53.8977 76.8585 53.3029 76.8928 52.7059L66.2484 52.6895L74.43 44.5073C74.0776 44.0372 73.689 43.5862 73.2615 43.1588C72.8365 42.7339 72.3858 42.3438 71.914 41.989L63.7309 50.1725L63.7143 39.5213C63.1118 39.5554 62.5173 39.6322 61.9347 39.7505C61.3276 39.8738 60.7333 40.042 60.1555 40.2533L60.1742 52.1992C60.801 52.1137 61.4016 51.9199 61.953 51.6243C62.4093 51.3798 62.832 51.067 63.2082 50.6909C63.2228 50.6763 63.2389 50.6636 63.254 50.6493C63.3965 50.5163 63.5572 50.4095 63.731 50.331C63.9562 50.2295 64.2022 50.1744 64.4573 50.1744C64.9343 50.1744 65.3832 50.3607 65.7214 50.6989C66.0587 51.0363 66.245 51.4843 66.2458 51.96C66.2461 52.2161 66.1909 52.463 66.089 52.6893C66.0094 52.8658 65.9005 53.0289 65.7644 53.1732C65.7525 53.1859 65.7418 53.1995 65.7293 53.2119L60.7294 58.2122L68.2851 65.7679Z" fill="#D8143A"/>
  <path d="M58.216 75.837L60.7331 73.3198L53.1776 65.764L50.6604 68.2813L58.216 75.837Z" fill="#D8143A"/>
  <path d="M63.2505 70.8024L65.7679 68.2851L58.212 60.7294L55.6947 63.2467L63.2505 70.8024Z" fill="#D8143A"/>
  <path d="M64.4355 37.5C67.4027 37.5001 70.2433 38.3915 72.6426 40.0488L73.1162 40.3906L73.5205 40.7061C73.9205 41.0292 74.3066 41.375 74.6758 41.7441C75.1723 42.2405 75.6227 42.7638 76.0303 43.3076C78.1295 46.1083 79.0808 49.4956 78.8896 52.8203C78.8499 53.5124 78.7601 54.2026 78.6211 54.8848C78.4788 55.5833 78.285 56.2747 78.0381 56.9512C77.3406 58.8623 76.2269 60.654 74.6992 62.1816L69.6992 67.1816L57.5264 79.3545C56.1451 80.7358 54.2976 81.5 52.3447 81.5C50.3864 81.4998 48.5353 80.732 47.1504 79.3467C44.2893 76.4854 44.2801 71.8335 47.1426 68.9707L62.5547 53.5576C61.8871 53.871 61.1766 54.0797 60.4443 54.1797L60.4453 54.1807C60.1202 54.2252 59.7848 54.25 59.4414 54.25C57.4828 54.2499 55.6321 53.4817 54.2471 52.0967C51.386 49.2355 51.3756 44.5834 54.2383 41.7207L54.5234 41.4434C55.9632 40.0793 57.6433 39.0427 59.4687 38.375C60.1405 38.1293 60.8311 37.9342 61.5361 37.791C62.213 37.6535 62.9026 37.565 63.5996 37.5254C63.8728 37.5098 64.1523 37.5 64.4355 37.5ZM63.2637 39.5547C62.8151 39.5962 62.3715 39.6622 61.9346 39.751L61.4814 39.8516C61.0312 39.9607 60.5884 40.0945 60.1553 40.2529C58.4822 40.8649 56.9484 41.8385 55.6523 43.1348C53.5736 45.2135 53.5781 48.5995 55.6611 50.6826C56.6716 51.6931 58.0139 52.2499 59.4414 52.25C59.6885 52.25 59.9331 52.2322 60.1738 52.1992C60.8006 52.1137 61.4017 51.9196 61.9531 51.624C62.4093 51.3796 62.8319 51.0665 63.208 50.6904C63.2225 50.6759 63.2389 50.6636 63.2539 50.6494C63.3964 50.5164 63.5577 50.4095 63.7314 50.3311C63.9565 50.2297 64.2022 50.1748 64.457 50.1748C64.934 50.1748 65.3835 50.361 65.7217 50.6992C66.0588 51.0365 66.2453 51.4844 66.2461 51.96C66.2465 52.2161 66.1908 52.4632 66.0889 52.6895C66.0094 52.8658 65.9006 53.0287 65.7646 53.1729C65.7527 53.1856 65.7419 53.1996 65.7295 53.2119L48.5566 70.3848C46.4779 72.4638 46.4817 75.8496 48.5644 77.9326C49.5746 78.9431 50.9173 79.4998 52.3447 79.5C53.768 79.5 55.1067 78.9461 56.1123 77.9404L73.2851 60.7676C74.5192 59.5335 75.4375 58.1014 76.042 56.5723L76.1592 56.2646C76.3185 55.8282 76.4527 55.3844 76.5615 54.9355L76.6621 54.4854C76.7818 53.8977 76.8583 53.303 76.8926 52.7061C77.0473 50.0155 76.3353 47.2822 74.7568 44.9648L74.4297 44.5078C74.1654 44.1552 73.8814 43.8126 73.5752 43.4834L73.2617 43.1592C72.8368 42.7343 72.3858 42.3441 71.9141 41.9893C69.9005 40.4753 67.4907 39.6118 64.9463 39.5098L64.4355 39.5C64.1941 39.5 63.9529 39.5078 63.7139 39.5215L63.2637 39.5547Z" fill="black"/>
</g>
</svg>