<svg width="120" height="120" viewBox="0 0 120 120" fill="none" xmlns="http://www.w3.org/2000/svg">
<path d="M60.866 3.5L60 2L59.134 3.5L48.742 21.5L47.8759 23H72.1249L71.2588 21.5L60.866 3.5Z" fill="#D8143A" stroke="black" stroke-width="2"/>
<path d="M60 82C72.1503 82 82 72.1503 82 60C82 47.8497 72.1503 38 60 38C47.8497 38 38 47.8497 38 60C38 72.1503 47.8497 82 60 82Z" fill="#D8143A" stroke="black" stroke-width="2.5"/>
<path d="M60.3573 59.7577C61.2394 66.6678 58.9277 75.583 54.492 81.1054C56.3921 81.6924 58.3826 82 60.4206 82C62.0741 82 63.6937 81.777 65.2612 81.3872C66.5347 75.3153 65.8403 67.4708 60.3573 59.7577ZM60.3573 59.7577C68.0638 61.2487 74.4538 67.4731 75.6911 74.9819C78.676 71.6175 80.5375 67.3445 81 62.796C76.7905 58.3607 69.9118 55.2637 60.3573 59.7577ZM60.3573 59.7577C62.7301 54.4302 70.5565 49.5722 78.082 49.3374C77.2305 47.8789 76.2153 46.5304 75.0578 45.3201C73.3696 43.5755 71.4017 42.1493 69.2423 41.1055C63.8746 44.0193 59.172 49.6685 60.3573 59.7577Z" fill="#F5F8FA"/>
<path d="M60.4527 59.8565C54.0966 56.3792 50.0997 48.0228 51.8188 41C49.5744 42.0526 47.5309 43.5161 45.7861 45.3203C44.5476 46.6159 43.4742 48.0709 42.5922 49.6499C45.5034 54.2496 51.0836 58.6403 60.4527 59.8565ZM60.2627 59.8565C54.4494 63.5123 46.1684 65.4705 40 63.8082C40.5394 67.5116 42.0109 71.0016 44.2661 73.9255C49.636 72.2585 55.7229 68.0486 60.2627 59.8565Z" fill="#F5F8FA"/>
<path d="M60 82C72.1503 82 82 72.1503 82 60C82 47.8497 72.1503 38 60 38C47.8497 38 38 47.8497 38 60C38 72.1503 47.8497 82 60 82Z" stroke="black" stroke-width="2.5"/>
</svg>
