<?xml version="1.0" encoding="UTF-8"?>
<svg fill="none" viewBox="0 0 64 64" xmlns="http://www.w3.org/2000/svg">
  <circle cx="32" cy="32" r="30" fill="FILL" stroke="BORDERS" stroke-width="4" />
  <g id="candyCane" transform="ROTATE_DEG" transform-origin="center">
    <path d="M32.6668 5.75376C30.3852 6.58825 28.2941 7.91566 26.5267 9.68328C23.6919 12.5178 23.6971 17.1353 26.5376 19.976C27.9157 21.354 29.7467 22.1129 31.6934 22.1129C32.0305 22.1129 32.3638 22.0886 32.6922 22.0437L32.6668 5.75376Z" fill="#DEDEE0"/>
    <path d="M40.9753 22.7123L55.4903 22.7346C55.7154 18.8212 54.5957 14.8418 52.1319 11.5548L40.9753 22.7123Z" fill="#DEDEE0"/>
    <path d="M40.32 43.979L43.7526 40.5464L33.4493 30.2432L30.0165 33.6757L40.32 43.979Z" fill="#DEDEE0"/>
    <path d="M37.5423 19.28L48.7011 8.12063C45.7722 5.91836 42.2283 4.72656 38.5027 4.72656C38.1734 4.72656 37.8456 4.7369 37.5196 4.75554L37.5423 19.28Z" fill="#DEDEE0"/>
    <path d="M37.6332 27.5618L47.1852 37.1137L50.5708 33.7281C52.366 31.9329 53.6715 29.8306 54.4899 27.588L37.6332 27.5618Z" fill="#DEDEE0"/>
    <path d="M33.4544 50.8444L36.8872 47.4116L26.5839 37.1085L23.1514 40.5411L33.4544 50.8444Z" fill="#DEDEE0"/>
    <path d="M22.0163 59.272V59.272C23.9572 59.272 25.7822 58.5168 27.1535 57.1454L30.022 54.277L19.7188 43.9738L16.8503 46.8424C14.0155 49.6775 14.0205 54.2947 16.8609 57.1351C18.2385 58.5131 20.0696 59.2719 22.0163 59.272Z" fill="#DEDEE0"/>
    <path d="M43.7526 40.5464L47.1852 37.1137L37.6332 27.5618L54.4899 27.588C54.7795 26.7945 55.0079 25.9827 55.1753 25.1612C55.3386 24.3597 55.4436 23.5487 55.4903 22.7346L40.9753 22.7123L52.1319 11.5548C51.6515 10.9136 51.1215 10.2986 50.5385 9.71588C49.9591 9.13644 49.3445 8.60451 48.7011 8.12063L37.5423 19.28L37.5196 4.75554C36.698 4.8021 35.8874 4.90682 35.0929 5.06822C34.265 5.23633 33.4546 5.46559 32.6668 5.75376L32.6922 22.0437C33.547 21.927 34.366 21.6628 35.1179 21.2597C35.7401 20.9264 36.3165 20.4998 36.8295 19.9868C36.8494 19.9669 36.8713 19.9497 36.8919 19.9302C37.0862 19.7487 37.3055 19.6031 37.5424 19.4961C37.8495 19.3577 38.185 19.2825 38.5329 19.2825C39.1832 19.2825 39.7954 19.5366 40.2566 19.9978C40.7166 20.4578 40.9706 21.0688 40.9716 21.7175C40.9722 22.0667 40.8968 22.4034 40.7578 22.712C40.6494 22.9526 40.5009 23.1751 40.3153 23.3718C40.299 23.3892 40.2844 23.4077 40.2673 23.4246L33.4493 30.2432L43.7526 40.5464Z" fill="#D8143A"/>
    <path d="M30.022 54.277L33.4544 50.8444L23.1514 40.5411L19.7188 43.9738L30.022 54.277Z" fill="#D8143A"/>
    <path d="M36.8872 47.4116L40.32 43.979L30.0165 33.6757L26.5839 37.1085L36.8872 47.4116Z" fill="#D8143A"/>
    <path d="M38.5028 2C42.5489 2.00009 46.4224 3.21568 49.6942 5.47567L50.3401 5.94176L50.8914 6.37189C51.4368 6.81254 51.9633 7.28408 52.4668 7.78746C53.1438 8.46427 53.758 9.17787 54.3138 9.91948C57.1763 13.7386 58.4736 18.3576 58.2129 22.8913C58.1587 23.8351 58.0363 24.7763 57.8467 25.7065C57.6527 26.659 57.3884 27.6019 57.0517 28.5243C56.1006 31.1304 54.5819 33.5736 52.4987 35.6568L45.6805 42.475L29.0812 59.0743C27.1977 60.9579 24.6784 62 22.0153 62C19.3449 61.9997 16.8207 60.9528 14.9321 59.0637C11.0307 55.1619 11.0181 48.8184 14.9215 44.9146L35.938 23.8968C35.0277 24.324 34.0588 24.6087 33.0602 24.745L33.0616 24.7464C32.6182 24.807 32.1609 24.8409 31.6926 24.8409C29.0218 24.8408 26.4982 23.7933 24.6094 21.9046C20.708 18.003 20.6938 11.6592 24.5974 7.7555L24.9863 7.37731C26.9497 5.51725 29.2407 4.10363 31.7299 3.19318C32.6459 2.85814 33.5877 2.59209 34.5491 2.39684C35.4721 2.20934 36.4125 2.08858 37.3629 2.03462C37.7355 2.01332 38.1165 2 38.5028 2ZM36.9048 4.80185C36.2931 4.85851 35.6881 4.94849 35.0924 5.06951L34.4745 5.20668C33.8605 5.35556 33.2568 5.53792 32.6661 5.754C30.3846 6.58848 28.2931 7.91619 26.5257 9.68377C23.6911 12.5183 23.6972 17.1357 26.5377 19.9763C27.9156 21.3542 29.7461 22.1135 31.6926 22.1136C32.0296 22.1136 32.3631 22.0893 32.6914 22.0444C33.5461 21.9277 34.3658 21.6632 35.1177 21.26C35.7397 20.9267 36.316 20.4998 36.8289 19.9869C36.8487 19.9671 36.871 19.9504 36.8915 19.931C37.0858 19.7496 37.3057 19.6039 37.5427 19.4969C37.8495 19.3587 38.1846 19.2839 38.5321 19.2838C39.1825 19.2838 39.7954 19.5377 40.2566 19.9989C40.7164 20.4589 40.9706 21.0697 40.9717 21.7181C40.9723 22.0673 40.8964 22.4044 40.7573 22.7129C40.649 22.9533 40.5006 23.1755 40.3152 23.3721C40.2989 23.3894 40.2843 23.4085 40.2673 23.4253L16.8497 46.8429C14.0151 49.6779 14.0203 54.295 16.8604 57.1354C18.2378 58.5133 20.0689 59.2724 22.0153 59.2727C23.9561 59.2727 25.7816 58.5174 27.1529 57.146L50.5704 33.7285C52.2533 32.0456 53.5055 30.0928 54.3298 28.0076L54.4896 27.5882C54.7068 26.993 54.8898 26.3878 55.0382 25.7757L55.1754 25.1618C55.3387 24.3605 55.4429 23.5495 55.4897 22.7355C55.7007 19.0666 54.7297 15.3394 52.5773 12.1793L52.1312 11.5561C51.7708 11.0753 51.3835 10.608 50.966 10.1592L50.5385 9.71706C49.9591 9.13768 49.3441 8.60555 48.7008 8.12172C45.955 6.0572 42.6689 4.8797 39.1993 4.74059L38.5028 4.72727C38.1735 4.72727 37.8447 4.73793 37.5187 4.75657L36.9048 4.80185Z" fill="black"/>
  </g>
</svg>