<svg width="64" height="64" viewBox="0 0 64 64" fill="none" xmlns="http://www.w3.org/2000/svg">
<path d="M32 62C48.5685 62 62 48.5685 62 32C62 15.4315 48.5685 2 32 2C15.4315 2 2 15.4315 2 32C2 48.5685 15.4315 62 32 62Z" fill="#D8143A" stroke="black" stroke-width="4"/>
<path d="M31.8051 31.6201C33.01 41.0582 29.8525 53.235 23.794 60.7777C26.3892 61.5795 29.108 61.9996 31.8916 61.9996C34.1501 61.9996 36.3622 61.6949 38.5032 61.1626C40.2426 52.8694 39.2941 42.1549 31.8051 31.6201ZM31.8051 31.6201C42.3311 33.6565 51.059 42.1582 52.749 52.414C56.8259 47.8187 59.3684 41.9825 60.0001 35.7699C54.2505 29.712 44.8552 25.482 31.8051 31.6201ZM31.8051 31.6201C35.046 24.3435 45.7358 17.7083 56.0146 17.3876C54.8515 15.3955 53.4649 13.5536 51.8839 11.9005C49.5781 9.51773 46.8902 7.56982 43.9407 6.14404C36.6093 10.1239 30.1862 17.8398 31.8051 31.6201Z" fill="#F5F8FA"/>
<path d="M31.9354 31.7551C23.2539 27.0056 17.7947 15.592 20.1427 6C17.0773 7.43775 14.2862 9.43655 11.903 11.9008C10.2114 13.6704 8.74528 15.6578 7.54059 17.8144C11.5168 24.0968 19.1386 30.0939 31.9354 31.7551ZM31.6759 31.7551C23.7358 36.7483 12.4251 39.4229 4 37.1524C4.73668 42.2107 6.74666 46.9775 9.82683 50.9711C17.1613 48.6942 25.4752 42.9441 31.6759 31.7551Z" fill="#F5F8FA"/>
<path d="M32 62C48.5685 62 62 48.5685 62 32C62 15.4315 48.5685 2 32 2C15.4315 2 2 15.4315 2 32C2 48.5685 15.4315 62 32 62Z" stroke="black" stroke-width="4"/>
</svg>
