<svg width="42" height="38" viewBox="0 0 42 38" fill="none" xmlns="http://www.w3.org/2000/svg">
<path d="M20.7084 38.0001L17.7057 35.308C14.2198 32.1673 11.3379 29.4579 9.05994 27.18C6.78202 24.902 4.97003 22.8571 3.62398 21.0451C2.27793 19.2331 1.33742 17.5678 0.802451 16.0492C0.267483 14.5306 -9.53674e-07 12.9774 -9.53674e-07 11.3898C-9.53674e-07 8.14546 1.08719 5.43611 3.26158 3.26172C5.43597 1.08733 8.14532 0.000141144 11.3896 0.000141144C13.1844 0.000141144 14.8928 0.379796 16.515 1.13911C18.1371 1.89842 19.535 2.96835 20.7084 4.34892C21.8819 2.96835 23.2797 1.89842 24.9019 1.13911C26.5241 0.379796 28.2325 0.000141144 30.0272 0.000141144C33.2716 0.000141144 35.9809 1.08733 38.1553 3.26172C40.3297 5.43611 41.4169 8.14546 41.4169 11.3898C41.4169 12.9774 41.1494 14.5306 40.6144 16.0492C40.0795 17.5678 39.139 19.2331 37.7929 21.0451C36.4469 22.8571 34.6349 24.902 32.3569 27.18C30.079 29.4579 27.1971 32.1673 23.7112 35.308L20.7084 38.0001Z" fill="white"/>
</svg>
